<svg width="512" height="512" viewBox="0 0 512 512" fill="none" xmlns="http://www.w3.org/2000/svg">
<rect width="512" height="512" rx="50" fill="url(#paint0_linear_1373_350)"/>
<g clip-path="url(#clip0_1373_350)">
<path d="M346.347 171.203L345 169.857C322.802 148.01 292.969 135.638 261.805 135.355V86L189.355 158.351L177.263 170.426C176.797 170.875 176.365 171.306 175.916 171.772C153.707 194.3 141.26 224.646 141.26 256.259C141.26 287.872 153.707 318.217 175.916 340.746L177.263 342.091C186.847 351.521 197.94 359.287 210.085 365.069L211.536 365.742C226.896 372.787 243.573 376.514 260.475 376.679V425.948L333.028 353.494L345.12 341.418C345.587 340.97 346.019 340.539 346.468 340.073C368.676 317.545 381.124 287.199 381.124 255.586C381.124 223.973 368.676 193.627 346.468 171.099L346.347 171.203ZM314.354 303.242L313.525 304.07L261.805 355.702V325.22C249.702 325.224 237.784 322.254 227.103 316.57C216.422 310.886 207.306 302.663 200.561 292.628C193.815 282.593 189.647 271.054 188.425 259.029C187.202 247.004 188.963 234.864 193.551 223.68C198.14 212.496 205.414 202.611 214.734 194.9C224.053 187.188 235.13 181.886 246.987 179.461C258.844 177.037 271.116 177.565 282.721 180.999C294.325 184.432 304.904 190.666 313.525 199.149L314.354 199.96C327.925 213.732 335.53 232.279 335.53 251.601C335.53 270.923 327.925 289.47 314.354 303.242Z" fill="white"/>
<path d="M188.198 111.1H180.753V103.665C180.623 99.9287 179.046 96.3886 176.353 93.7912C173.661 91.1937 170.064 89.7419 166.32 89.7419C162.576 89.7419 158.979 91.1937 156.286 93.7912C153.594 96.3886 152.016 99.9287 151.887 103.665V111.1H144.442C140.611 111.1 136.938 112.62 134.23 115.324C131.522 118.029 130 121.697 130 125.522C130 129.347 131.522 133.015 134.23 135.72C136.938 138.424 140.611 139.944 144.442 139.944H151.887V147.379C152.016 151.115 153.594 154.656 156.286 157.253C158.979 159.85 162.576 161.302 166.32 161.302C170.064 161.302 173.661 159.85 176.353 157.253C179.046 154.656 180.623 151.115 180.753 147.379V139.944H188.198C192.028 139.944 195.702 138.424 198.41 135.72C201.118 133.015 202.64 129.347 202.64 125.522C202.64 121.697 201.118 118.029 198.41 115.324C195.702 112.62 192.028 111.1 188.198 111.1Z" fill="white"/>
<path d="M261.823 273.915C273.586 273.915 283.122 264.392 283.122 252.645C283.122 240.897 273.586 231.374 261.823 231.374C250.059 231.374 240.523 240.897 240.523 252.645C240.523 264.392 250.059 273.915 261.823 273.915Z" fill="white"/>
</g>
<ellipse cx="256" cy="448" rx="50" ry="12" fill="#84C848"/>
<defs>
<linearGradient id="paint0_linear_1373_350" x1="256" y1="0" x2="256" y2="512" gradientUnits="userSpaceOnUse">
<stop stop-color="#5AAE32"/>
<stop offset="1" stop-color="#A5DE61"/>
</linearGradient>
<clipPath id="clip0_1373_350">
<rect width="251" height="340" fill="white" transform="translate(130 86)"/>
</clipPath>
</defs>
</svg>
